<?xml version="1.0" encoding="UTF-8"?>
<svg width="400mm" height="160mm" version="1.1" viewBox="0 0 1417.3228 566.92913" xmlns="http://www.w3.org/2000/svg">
 <g transform="translate(0 -485.43)">
  <rect x="54.571" y="579.61" width="270" height="394.29" ry="28.571" fill="none" stroke="#d40000" stroke-width="20"/>
  <rect x="152.86" y="560.3" width="79.543" height="10.057" ry="5.0286" fill="#f00" stroke="#d40000" stroke-width="12.8"/>
  <rect x="83.143" y="866.75" width="212.86" height="71.429" ry="0" fill="#d40000"/>
  <rect x="401.48" y="579.61" width="270" height="394.29" ry="28.571" fill="none" stroke="#a40" stroke-width="20"/>
  <rect x="499.76" y="560.3" width="79.543" height="10.057" ry="5.0286" fill="none" stroke="#a40" stroke-width="12.8"/>
  <rect x="430.05" y="866.75" width="212.86" height="71.429" ry="0" fill="#a40"/>
  <rect x="430.05" y="782.56" width="212.86" height="71.429" ry="0" fill="#a40"/>
  <rect x="748.38" y="579.61" width="270" height="394.29" ry="28.571" fill="none" stroke="#fc0" stroke-width="20"/>
  <rect x="846.67" y="560.3" width="79.543" height="10.057" ry="5.0286" fill="none" stroke="#fc0" stroke-width="12.8"/>
  <rect x="776.95" y="866.75" width="212.86" height="71.429" ry="0" fill="#fc0"/>
  <rect x="776.95" y="782.56" width="212.86" height="71.429" ry="0" fill="#fc0"/>
  <rect x="776.95" y="698.37" width="212.86" height="71.429" ry="0" fill="#fc0"/>
  <g transform="translate(-86.857 99.393)">
   <rect x="1182.1" y="480.22" width="270" height="394.29" ry="28.571" fill="none" stroke="#00a900" stroke-width="20"/>
   <rect x="1280.4" y="460.91" width="79.543" height="10.057" ry="5.0286" fill="none" stroke="#00a900" stroke-width="12.8"/>
   <rect x="1210.7" y="767.36" width="212.86" height="71.429" ry="0" fill="#00a900"/>
   <rect x="1210.7" y="683.17" width="212.86" height="71.429" ry="0" fill="#00a900"/>
   <rect x="1210.7" y="598.98" width="212.86" height="71.429" ry="0" fill="#00a900"/>
   <rect x="1210.7" y="514.79" width="212.86" height="71.429" ry="0" fill="#00a900"/>
  </g>
 </g>
</svg>
