<?xml version="1.0" encoding="UTF-8"?>
<!DOCTYPE svg  PUBLIC '-//W3C//DTD SVG 1.1//EN'  'http://www.w3.org/Graphics/SVG/1.1/DTD/svg11.dtd'>
<svg enable-background="new 0 0 1920 1260" version="1.1" viewBox="0 0 1920 1260" xml:space="preserve" xmlns="http://www.w3.org/2000/svg">
<g fill="#29ABE2">
	<path d="m1020 669.39c-40.277-40.277-87.23-71.467-139.56-92.705-50.534-20.511-103.91-30.91-158.66-30.91s-108.12 10.399-158.66 30.91c-52.324 21.237-99.277 52.428-139.55 92.705-13.473 13.474-13.473 35.317 0 48.791s35.318 13.472 48.79 0c137.53-137.53 361.31-137.53 498.84 0 6.737 6.736 15.566 10.104 24.396 10.104s17.658-3.368 24.396-10.104c13.473-13.474 13.473-35.318 0-48.791z"/>
	<path d="m721.74 667.94c-84.481 0-163.95 32.939-223.76 92.75-13.473 13.474-13.473 35.317 0 48.791 13.473 13.473 35.317 13.473 48.79 0 96.478-96.479 253.46-96.479 349.93 0 6.736 6.736 15.566 10.104 24.395 10.104s17.659-3.368 24.395-10.104c13.473-13.474 13.473-35.317 0-48.791-59.812-59.81-139.28-92.75-223.76-92.75z"/>
	<path d="m721.74 792.71c-51.632 0-100.2 20.129-136.75 56.68-13.473 13.474-13.473 35.317 0 48.791 13.472 13.472 35.316 13.472 48.79 0 48.5-48.5 127.42-48.5 175.92 0 6.736 6.736 15.565 10.104 24.395 10.104 8.829 0 17.659-3.368 24.395-10.104 13.473-13.474 13.473-35.317 0-48.791-36.551-36.551-85.116-56.68-136.75-56.68z"/>
	<circle cx="721.6" cy="939.57" r="28.652"/>
</g>
</svg>
